# xmcd
#
# Track frame offsets:
#	150
#	16368
#	27838
#	41735
#	57935
#	75863
#	91023
#	106305
#	123603
#	145753
#	159153
#	170080
#	183908
#	203105
#	218560
#	231415
#
# Disc length: 3310 seconds
#
# Revision: 0
# Processed by: cddbd v1.4PL0 Copyright (c) Steve Scherf et al.
# Submitted via: EasyCDDAExtractor 4.6.9.1
#
DISCID=c90cec10
DTITLE=The Cats
DYEAR=1900
DGENRE=
TTITLE0=One Way Wind
TTITLE1=Whatr A Crazy Life
TTITLE2=Times Where When
TTITLE3=Lea
TTITLE4=Why
TTITLE5=Let's Dance
TTITLE6=Vaya Con Dios
TTITLE7=There Has Been A Time
TTITLE8=Rock'n Roll
TTITLE9=Be My Day
TTITLE10=Come Sunday
TTITLE11=Save The Last Dance For Me
TTITLE12=The End Of The Show
TTITLE13=La Diligence
TTITLE14=Love Is A Golden Ring
TTITLE15=One Way Wind (dtsch. Originalaufnahme)
EXTD=
EXTT0=
EXTT1=
EXTT2=
EXTT3=
EXTT4=
EXTT5=
EXTT6=
EXTT7=
EXTT8=
EXTT9=
EXTT10=
EXTT11=
EXTT12=
EXTT13=
EXTT14=
EXTT15=
PLAYORDER=
